<?xml version="1.0" encoding="utf-8"?>
<!-- Generator: Adobe Illustrator 17.1.0, SVG Export Plug-In . SVG Version: 6.00 Build 0)  -->
<!DOCTYPE svg PUBLIC "-//W3C//DTD SVG 1.1//EN" "http://www.w3.org/Graphics/SVG/1.1/DTD/svg11.dtd">
<svg version="1.1" id="Layer_1" xmlns="http://www.w3.org/2000/svg" xmlns:xlink="http://www.w3.org/1999/xlink" x="0px" y="0px"
	 width="1400px" height="980px" viewBox="0 0 1400 980" enable-background="new 0 0 1400 980" xml:space="preserve">
<g>
	<rect x="0" fill-rule="evenodd" clip-rule="evenodd" fill="#E0E9EE" width="1400" height="980"/>
	<g>
		<path fill-rule="evenodd" clip-rule="evenodd" fill="#B6BABD" d="M550.6,505.1C367.3,504.8,184,504.9,0,505v142.2
			c63.7,15.8,134.4,12.8,199.6,13.2c76.3,0.5,161.8,4.3,249.2,7.9c-0.3-24.6,8.3-51.2,21-75.4C489.2,555.8,516.1,524.3,550.6,505.1"
			/>
		<path fill-rule="evenodd" clip-rule="evenodd" fill="#B6BABD" d="M827.1,505.8c53.3,32.2,95,94.9,101.6,156.9
			c134.7-5.5,276.8,12.3,420.1,0.6c16.7-1.4,33.9-2,51.3-2.3V509.2c-59,0-118.1-0.2-177.1-0.7C1090.6,507.2,958.7,506.4,827.1,505.8
			"/>
		<path fill-rule="evenodd" clip-rule="evenodd" fill="#ADADAD" d="M0,505c184-0.1,367.3-0.2,550.6,0.1c15.9-8.8,33.4-15.1,52.5-18
			c0.7-4.6,1.7-7.5,2.9-8.9c-0.4-1.5,0.6-3,2.5-3.2c7.5-1.2,29.7-6.1,42.8-6c-0.7-6.9,5.3-13.2,25-18.7c1.4-6.2,2.6-11.5,3.2-16.2
			c-88.7-0.8-177.6-1.5-267.1-2.2C308,431.1,124.9,434.6,0,424.5V505z"/>
		<path fill-rule="evenodd" clip-rule="evenodd" fill="#ADADAD" d="M743.3,467.5c6.4,4.2,9.2,5.4,15.8,8.6c8-2.1,20.3,1.6,39.6,14.3
			c0.6,0.5,1,1.2,1,2c9.4,3.5,18.6,8.1,27.5,13.4c131.7,0.5,263.5,1.4,395.8,2.7c59,0.6,118.1,0.7,177.1,0.7v-63.3
			c-44.6-0.6-89.6-2.2-125.2-3c-182.9-4-363.3-6.5-544.3-8.3c-5.3,3.8-9.6,8.7-12.4,15.3c10.1,0,20.2,3.9,24.5,14.4
			C743,465.4,743.2,466.4,743.3,467.5"/>
		<path fill-rule="evenodd" clip-rule="evenodd" fill="#ADADAD" d="M162.3,266.2h-28.7C137.8,258.4,153.2,251.2,162.3,266.2
			 M84.9,277.6c-7.7,31.3-38.8,169.7,12,168.7c57.3-1,135.4,49,133.3-33.3c-1.8-69.3-13.1-120.8-16.7-135.4h32.3v-11.5h-73.7
			c0-0.4-0.1-0.8-0.3-1.2c-13.5-26.9-42.2-17-47.8,1.2H44.8v11.5H84.9z"/>
		<rect x="308.1" y="233.1" fill-rule="evenodd" clip-rule="evenodd" fill="#ADADAD" width="230.2" height="19.8"/>
		<path fill-rule="evenodd" clip-rule="evenodd" fill="#ADADAD" d="M357.8,261.5c2.1-9.4-13.5-16.7-13.5-16.7s-15.6,7.3-13.5,16.7
			c2.1,9.4,9.4,35.4,5.2,46.9c-4.2,11.5-14.6,2.1-17.7,25c-2.7,20-0.7,45.3-0.1,51.3l26.2,0.7l26.2-0.7c0.6-6,2.6-31.2-0.1-51.3
			c-3.1-22.9-13.5-13.5-17.7-25C348.5,296.9,355.8,270.9,357.8,261.5"/>
		<path fill-rule="evenodd" clip-rule="evenodd" fill="#ADADAD" d="M420.3,261.5c2.1-9.4-13.5-16.7-13.5-16.7s-15.6,7.3-13.5,16.7
			c2.1,9.4,9.4,35.4,5.2,46.9c-4.2,11.5-14.6,2.1-17.7,25c-2.7,20-0.7,45.3-0.1,51.3l26.2,0.7l26.2-0.7c0.6-6,2.6-31.2-0.1-51.3
			c-3.1-22.9-13.5-13.5-17.7-25C411,296.9,418.3,270.9,420.3,261.5"/>
		<path fill-rule="evenodd" clip-rule="evenodd" fill="#ADADAD" d="M468.2,338.5c-11,0.5-16.4-47.9-4.9-65.1
			c5.2-7.8,7.3-15.1-1.6-22.9c-11-9.7-22.1,80.9,10.4,96.6c7.6,3.6,40.9,2.9,24-12.8c-11.5-10.6-21.9-2.3-26.3,2.4
			C469.1,337.4,468.6,338,468.2,338.5"/>
		<path fill-rule="evenodd" clip-rule="evenodd" fill="#ADADAD" d="M1001.9,266.2h-28.7C977.4,258.4,992.8,251.2,1001.9,266.2
			 M924.4,277.6c-7.7,31.3-38.8,169.7,12,168.7c57.3-1,135.4,49,133.3-33.3c-1.8-69.3-13.1-120.8-16.7-135.4h32.3v-11.5h-73.7
			c0-0.4-0.1-0.8-0.3-1.2c-13.5-26.9-42.2-17-47.8,1.2h-79.3v11.5H924.4z"/>
		<path fill-rule="evenodd" clip-rule="evenodd" fill="#ADADAD" d="M1303.7,358.9h-17.9C1288.4,354,1298,349.6,1303.7,358.9
			 M1255.4,366c-4.8,19.5-24.2,105.8,7.5,105.2c35.7-0.6,84.4,30.5,83.1-20.8c-1.1-43.2-8.2-75.3-10.4-84.4h20.1v-7.1h-45.9
			c0-0.2-0.1-0.5-0.2-0.7c-8.4-16.8-26.3-10.6-29.8,0.7h-49.4v7.1H1255.4z"/>
		<path fill-rule="evenodd" clip-rule="evenodd" fill="#ADADAD" d="M1157.8,358.9h-17.9C1142.6,354,1152.1,349.6,1157.8,358.9
			 M1109.5,366c-4.8,19.5-24.2,105.8,7.5,105.2c35.7-0.6,84.4,30.5,83.1-20.8c-1.1-43.2-8.2-75.3-10.4-84.4h20.1v-7.1H1164
			c0-0.2-0.1-0.5-0.2-0.7c-8.4-16.8-26.3-10.6-29.8,0.7h-49.4v7.1H1109.5z"/>
		<path fill-rule="evenodd" clip-rule="evenodd" fill="#AEB8BD" d="M0,78.3c160.3,13.9,322.7,3.4,484.7,3.3
			c4.9-17.8,23.3-30.4,51.4-21c3-26.9,30.6-38.6,54.3-22.7c4.8-41.1,44.6-25.4,55.2,14.5l3.2,21.4c3.1,4.3,6.2,8.4,9.4,12.5
			c187.1,6.9,374.8,2.4,560.5,14.2c79.4,5,116.8-0.3,181.5-5V0H0V78.3z"/>
		<path fill-rule="evenodd" clip-rule="evenodd" fill="#FFEAE0" d="M448.7,668.4c-87.3-3.6-172.9-7.5-249.2-7.9
			C134.4,660.1,63.7,663,0,647.2v98.9c119.3,0.1,234.3,1.3,354.2,7.3c59.6,3,119.7,2.4,179.5,2.2c-12.9-4.9-26.1-10.7-37.9-16.1
			C462,724,449.1,697.7,448.7,668.4"/>
		<path fill-rule="evenodd" clip-rule="evenodd" fill="#FFEAE0" d="M928.6,662.7c1.5,14.4,1.1,28.7-1.4,42.6
			c-3.2,17.4-5.6,20.1-12.9,35.8l-4.8,12.1c86.6,0.2,161.2,10.1,248.3,11.6l242.3,4.3V661c-17.4,0.2-34.6,0.9-51.3,2.3
			C1205.5,675,1063.3,657.2,928.6,662.7"/>
	</g>
</g>
<g>
	<path fill-rule="evenodd" clip-rule="evenodd" fill="#512711" d="M801.4,771.7c-0.1,0-0.1,0-0.2-0.1
		C801.2,771.6,801.3,771.7,801.4,771.7 M633.6,745.3c-2.8-0.1-6.2-0.7-10.3-1.9l0.6,5c0.1,1.3,0,2.5,0,3.6
		C627.1,749.7,630.4,747.4,633.6,745.3z M560.1,699.4c-9.8-12.3-27.1,22.4-16.5,51.5c6.7,5.7,9.9,9.3,10.6,2.5
		c-0.5-0.6-0.7-1.4-0.5-2.2l0-0.1c-0.1-0.3-0.1-0.6-0.1-1c-6.8-17.5-2.3-32.9,5.7-49.1C559.4,700.4,559.7,699.8,560.1,699.4z
		 M642.4,719.5L642.4,719.5L642.4,719.5L642.4,719.5z M652.7,733.8c-2.5-2.1-5.4-4.4-8.6-7c0.8,4.8,1,8.8,0.2,11.8
		C647.5,736.8,650.3,735.2,652.7,733.8z M744.1,787.6c-1.6-6-15.2-11.1-28.9-18.3c7.4,8.9,13,17.8,10.6,22.2
		c-0.1,0.2-0.2,0.4-0.4,0.6C731.7,790.7,737.9,789.2,744.1,787.6z M695.5,798c-3.2-20-6.9-24.9-12.2-40.9c-1.4-2.8-2.4-4.7-2.6-5.2
		c-0.7-1.2-0.2-2.8,1-3.5c1.2-0.7,2.8-0.2,3.5,1c0,0.1,0.4,0.9,1.1,2.1c0.6,0.5,1,1.2,1,2c6.5,12.7,26.5,49.2,34.1,35.5
		c1.9-3.5-15.7-22.6-25.4-32.7c-1-0.9-1.9-1.9-2.8-2.9c-1.2-1.3-2.2-2.2-2.8-2.8c-1.3-0.5-2.1-1.9-1.6-3.3c0.5-1.3,1.9-2.1,3.3-1.6
		c0.8,0.7,1.9,1.7,3.3,2.9c0.5,0.2,1,0.6,1.3,1.1l0.4,0.4c1.6,1.5,3.4,3.2,5.3,5.1c16.3,13.3,43,18.1,46.7,31c3.9-1,7.9-2,11.8-3
		c-1.4-1.1-3.1-2-4.7-2.9c-42.9-23-37.2-10.8-79.3-51.3c-7.2,4.5-22.3-2-30.6-7.1c4.4,3.5,8.2,6.6,11.4,9.4c0.9,0,1.7,0.4,2.2,1.2
		c0.2,0.3,0.3,0.7,0.4,1c20.4,18.2,19,25.8,21.4,65.6C687,798.9,691.7,798.4,695.5,798z M696.9,779.8c1.3,4.6,2.4,9.8,3.6,17.5
		c0.6-0.1,1.1-0.2,1.5-0.3c3.1-0.6,6.1-1.2,9.2-1.8C706.4,792.2,701.4,786.3,696.9,779.8z M674.9,774.1c-3.5,1.9-7.9,4.6-10.1,7.3
		c-15.1,19-20.5,8-21.2,19.3c11.1,0.1,22.8-0.4,32.9-1.1C675.8,789,675.5,780.8,674.9,774.1z M638.5,800.6c1-16.5,8.9-4.6,21.9-21.7
		c3.6-4.7,8.9-7.7,14.1-10.3c-1.7-14.1-5.2-20.5-17.6-31.3c-7.4,4.1-22.5,12.6-35,22.5c-1.8,3.7-4.7,5.9-7.8,6.7
		c-9.2,8.7-15,18-10.9,26C606,798,620.9,800.2,638.5,800.6z M740.7,764.6c17.9,5.9,30.3-16.2,54.2-6.9c1.3,0.5,2.1,1.9,1.6,3.3
		c-0.5,1.3-1.9,2.1-3.3,1.6c-18.6-7.2-29.1,7.4-44.7,8.2c3,1.5,6.3,3.2,10,5.2c3.1,1.7,5.7,2.9,7.6,5.8c0,0.1,0.1,0.1,0.1,0.2
		c10.4-2.7,20.8-5.3,31.1-7.7c-0.7-3.8,6.5-10.5,7.7-11.7c12.9-12.6,22.9-20.6,30.9-25.4c-3.8-1.6-6.5-2.1-11.4-1.3
		c-22.7,4.1-24.6,2.7-49.6,1.9c-30.1-0.9-31.9,22.9-49.9,22.1c3.7,1.7,7.6,3.3,12.6,5.6C738.3,764.5,739.6,764.1,740.7,764.6z
		 M877.3,723.6l-5.8-12.1c-34-53.5-141.9-4.2-191.5,10.3l0.7,0.8c-0.2,1.1-0.4,2.1-0.8,2.9c20.6,19.4,29.9,26.6,38.8,31.4
		c0-0.3,0-0.5,0.1-0.8c0.4-1.4,1.9-2.1,3.2-1.7c18.1,4.2,18.4-22.7,53.1-21.7c24.2,0.7,26.1,2.3,48.1-1.8c7.6-1.4,10.9-0.3,17.7,2.9
		c0.2,0.1,0.3,0.2,0.4,0.3c21.4-10.4,25.8,4.7,36,4.1c0-0.1,0.1-0.2,0.2-0.3C877.8,732.9,877.5,727.9,877.3,723.6z M882.4,722.3
		l0.2,0.4c0.2,0.7,0.2,1.4-0.1,2c0.1,4.2,0.3,8.5,0.2,12.8c8.8,3,15,9.4,20.9,16.6c3.5-8.4,2-4.8,5.5-13.5
		c-10.9-11.3-15.5-16.2-26.7-24C882.3,718.5,882.3,720.4,882.4,722.3z M776.5,385.3c-0.1,0.1-0.3,0.2-0.4,0.3l0,0l0,0l0,0l0,0l0,0
		l-0.1,0c-27.5,14.1-49,17-70.8-10.2c-0.8-1.2-0.4-2.8,0.8-3.5c0.5-0.3,1-0.4,1.5-0.4l0,0c0,0,0.6,0,0.6,0
		c32.4,0.6,44.6,1.1,76.5-2.6c0.2,0,0.4-0.1,0.6-0.1h0l0,0l0,0l0,0l0,0l0,0l0,0c0.2,0,0.5,0.1,0.7,0.2l0,0l0.1,0l0.1,0l0,0l0.1,0
		l0,0l0.1,0h0l0.1,0l0,0l0.1,0h0l0.1,0l0.1,0h0l0.1,0l0,0l0.1,0.1l0,0l0,0l0,0l0,0l0,0l0,0l0,0l0,0l0,0l0,0l0,0l0,0l0,0l0,0l0,0l0,0
		l0,0l0,0l0,0l0,0l0,0l0,0l0,0l0,0l0,0l0.1,0.1l0,0l0,0l0,0l0,0l0.1,0.2l0,0l0,0.1l0,0l0,0.1l0,0l0,0.1v0l0,0.1v0l0,0.1l0,0.1h0
		l0,0.1h0l0,0.1l0,0l0,0.1l0,0l0,0.1l0,0l0,0.1l0,0l0,0.1l0,0l0,0.1l0,0l0,0.1l0,0l0,0.1l0,0l0,0.1l0,0l0,0.1l0,0l0,0l0,0l0,0v0l0,0
		v0v0l0,0l0,0l0,0l0,0l0,0l0,0l0,0.1l0,0l0,0c-0.1,0.3-0.2,0.6-0.3,0.8C785.4,378.3,781.2,381.8,776.5,385.3z M713,376.9
		c18.8,20.4,37.3,16.2,60.5,4.3c2.3-1.7,5.1-4,7.1-6.6C754.3,377.6,739.8,378.1,713,376.9z M778.3,314.3
		c15.9,13.7,19.7,30.8-3.7,33.7c-1.4,0-2.6-1.2-2.6-2.6c0-1.4,1.2-2.6,2.6-2.6c19.1-2.5,10.9-15.6,0.5-24.5
		c-1.1-0.9-1.3-2.5-0.4-3.6C775.6,313.6,777.2,313.4,778.3,314.3z M608.1,801.6c21.5,35.8,68.2,69.8,109.7,71
		c21.8,0.7,46.8-4.9,70.6-9.1c-5.2-1.7-7.7-5.9-5.5-13.5c-34.6,2.3-47.8-15.5-7-26.1c-2.5-0.7-4.5-1.7-6-3
		c-22-19.5,71.1-25.5,79.3-39.9c13.4-23.6-37.8,19.4-49.4-3c-0.4,0.8-1.3,1.4-2.3,1.4c-30.9,7.4-63.4,17.1-94.3,22.7
		C689.1,804.6,631.4,809.3,608.1,801.6z M610.5,486.1c-0.4-1-0.9-1.9-1.5-2.6c-0.3,0.8-0.5,1.9-0.6,2.8
		C609,486.3,609.7,486.2,610.5,486.1z M602,555.6c1.4,6.6,2.2,11.3,2.7,16.6c1-3,2.2-6.8,3.6-11.9c2.4-8.5,7.7-50.3,3.7-69.2
		c-63.1,6.2-109,49.5-137.7,104.3c-26.2,50-35.6,112.3,23.5,139.4c12.6,5.8,26.9,11.9,40.4,17.2c-6.4-15.2-1-43.3,8.3-55.3
		c-18.3-8.7-29.3-17.7-33.8-39.2c-11.4-54.3,37.2-91.4,84.7-104.3c0.5-0.1,1-0.1,1.4,0.1c0.2-0.1,0.4-0.1,0.7-0.1
		C600.8,553.1,602,554.2,602,555.6z M797.1,585.3c-0.8,5.4-3.1,7.6-7.1,11.9c-0.2,0.2-0.3,0.3-0.5,0.4c2.4,20-2.9,68.7-4.1,86.6
		c0,0.4-0.1,0.8-0.2,1.1c37.5-6.9,72.9-4.7,90.8,23.4l1.5,3.2l1.2-18.5C879.7,649.4,842.9,593.2,797.1,585.3z M788.3,591.4
		c1.8-2,3.2-3.9,3.7-6.8c-1.4,0-2.5-1.1-2.5-2.5c0-1.4,1.1-2.6,2.5-2.6c51.2,4.8,93,65.3,91.7,114.1l-1,16.3
		c4.7,1.8,13.2,9.3,28.4,26l6.3-13.7c30.3-83.7-41.8-201.7-128-227.8C778.9,524.6,782.6,560.8,788.3,591.4z M672.8,464
		c-0.1,0.6-0.2,1.3-0.1,1.9l0.7-3.2c0.5-2.4,1-4.6,1.5-6.7c-14,4.2-18.6,8.6-18.2,13.5c0.3,0.1,0.6,0.1,0.8,0.2
		c0.3,0,0.5,0.1,0.8,0.2l0,0l0,0l0.1,0l0,0l0,0l0,0l0,0l0,0l0,0l0,0l0,0l0,0l0,0l0,0l0.1,0.1l0,0l0,0l0,0l0,0l0,0l0,0l0,0l0,0l0,0
		l0,0l0,0l0.1,0.1l0,0l0,0l0,0l0,0l0,0l0,0l0,0l0,0l0,0l0,0l0,0l0,0l0,0l0,0l0,0l0,0l0,0l0,0l0,0l0,0l0,0l0,0l0,0l0,0l0,0l0,0.1l0,0
		l0,0.1v0c0.1,0.3,0.2,0.6,0.2,1c0.3,1.7,0.5,3.4,0.7,5.3c6.3,8.2,18.4,18.1,21.9,30.9c3.6-5.8,7.4-11.3,11.3-16.9
		c-0.2-0.2-0.3-0.5-0.4-0.8c-6.2-6.5-28.5-13.5-25.6-28.2c0.4-1.4,1.8-2.2,3.2-1.8C672.4,461.2,673.2,462.7,672.8,464z M715.2,460.3
		c1,0.3,1.7,1.3,1.7,2.4c-0.9,15.3-10,13.9-17.5,27.4l0,0l0,0l0,0l0,0l0,0c7.4,13.1,4.9,8.8,9.9,17.5c9.8-11.9,33.8-33,27.6-42.9
		c-5.4-8.7-12.3-10-20.7-9.7C715.9,456.7,715.5,458.5,715.2,460.3z M753.4,479.1c-4.1-1.9-6.8-3.3-10.9-6
		c-4.1,13.1-22.8,29.9-31,39.8c-0.2,0.6-0.6,1.1-1.2,1.4l0,0l0,0l0,0l0,0l0,0l0,0l0,0l0,0l0,0l0,0l0,0l0,0l0,0l0,0l0,0l0,0l0,0l0,0
		l0,0l0,0l0,0l0,0l0,0l0,0l0,0l0,0l0,0l0,0l0,0l0,0l-0.1,0l-0.1,0h0l-0.1,0h0h-0.1l-0.1,0l0,0l-0.1,0l0,0l-0.1,0l0,0l-0.1,0l0,0
		l-0.1,0l0,0l-0.1,0l0,0l-0.1,0l0,0l-0.1,0l0,0l-0.1,0v0l-0.1,0v0l-0.1,0v0l-0.1,0l-0.1,0v0l-0.1,0l-0.1,0l-0.1,0l-0.1,0l-0.1,0
		l-0.1,0l0,0l-0.1,0h0l-0.1,0l0,0l-0.1,0l0,0l0,0l0,0l0,0l0,0l0,0l0,0l0,0l0,0l0,0l0,0l0,0l0,0l0,0l0,0l0,0l0,0l0,0l0,0l0,0l0,0l0,0
		l0,0l0,0l0,0l0,0l0,0l0,0l0,0l0,0l0,0l0,0l0,0l0,0l0,0l0,0l0,0l0,0l0,0l0,0l0,0l0,0l0,0l0,0l0,0l0,0l0,0l0,0l0,0l0,0l0-0.1l0,0l0,0
		l0-0.1c-6.7-11.3-4.2-6.9-9.6-16.7c-8.5,14.2-14.9,29.9-19.4,13.6c-2.3-8.5-9.9-16.5-16.4-24.1c2,42.9-11.3,110,45.3,101.9
		C757.2,580.5,732.2,497.3,753.4,479.1z M833,280.9c-0.2,0.1-0.4,0.2-0.7,0.3c-17.7,1.5-18.8,1.4-36.3-4.1
		c-55.2-17.3-29.2-12.8-84.3-6.8c-26.8,2.9-30.1-5.5-32,5.3c-7.2,41.1-28.2,23-37.5,78.8c-0.1,1.4-1.4,2.5-2.8,2.4
		c-0.5,0-1-0.2-1.4-0.5c-1.2,0.2-2.4-0.5-2.8-1.7c-0.7-1.1-1.4-2.1-2.2-3.1c-0.6-0.7-1.2-1.4-1.7-2.1c-19-23.2-39.5-10.8-35.6,11.5
		c5.3,30.1,24.1,25.5,45.5,16.7l0,0l0,0l0,0l0,0l0.1,0l0,0l0.1,0l0.1,0l0.1,0h0l0.1,0l0,0l0.1,0l0,0l0.1,0l0,0l0.1,0l0,0l0,0l0,0
		l0,0l0,0l0,0l0,0l0,0l0,0l0,0h0l0,0h0h0l0,0l0,0h0l0,0l0,0l0,0l0,0l0,0l0,0l0,0l0,0l0,0l0,0l0,0l0,0l0,0l0,0l0.1,0l0,0l0,0l0,0l0,0
		l0,0l0,0l0.1,0l0,0l0.1,0l0,0l0.1,0l0,0l0.1,0l0,0l0,0l0,0l0,0l0,0l0,0l0,0l0.2,0.1l10.2,6.7c40.1,30.1,33.8,36.3,23,84.6
		c0,1.1-0.7,2-1.7,2.4c5,5.6,15.4,10.3,20.3,14.7c6.1-9.9,12.9-11.8,15.2-18.9c-0.9-0.4-1.5-1.3-1.5-2.3
		c5.7-66.2,85.1-27.2,131.3-107.1C856.7,330.3,850.5,301.4,833,280.9z M686.5,264.8c5.9,0.1,14.1,1.5,24.8,0.4
		c55.9-6.1,30.7-10.4,86.4,7.1c15.1,4.7,17.1,5.3,31.1,4.1c-11-11-25.5-18.9-41.4-21.8C747.7,247.4,720,246.2,686.5,264.8z
		 M637.9,349.6c10-52.7,30-36.8,36.7-74.9c0.2-1.2,0.5-2.3,0.8-3.2c-3.6,2.4-7.4,5-11.2,7.9c-17.8,13.3-46.4,45.8-26.8,69.3
		c0.2,0.2,0.3,0.5,0.3,0.7L637.9,349.6z M830.7,271.2c-26.4-42.1-72.7-45.5-122.1-32.9c-45.1,11.5-90.1,45.9-97.6,93.4
		c4.8,0.1,10,1.8,15.3,5.7c-4.5-23.3,18.8-49.9,35-62.1c45.3-34,77.2-34.7,126.5-25.7C804.3,252.5,819.2,260.3,830.7,271.2z
		 M644.6,76.7c-0.3-0.3-0.6-0.6-0.7-1v0l0-0.1l0,0l0-0.1l0,0l0-0.1l0,0l0-0.1l0,0l0,0l0,0l0,0l0,0l0,0l0,0l0,0l0,0l0-0.1l0,0l0-0.1
		l0,0l0-0.1l0,0l0-0.1v0l0-0.1l-3.1-21.1c-9-33.8-42.2-51.2-45.3-13.6c0,0.5-0.1,0.9-0.3,1.3c3.6,3.1,7.1,6.9,10.3,11.4
		c5.7,8.1,0.5,1.5,6.4,8.7c1,1,1.1,2.6,0.2,3.6c-1,1-2.6,1.1-3.6,0.2c-6.8-8.2-1.2-1.2-7.2-9.6c-22.2-31.3-57-22.3-59.8,5.4
		c0,0.6-0.2,1.1-0.5,1.6c8.8,4.6,19.4,14.5,25,21c1.3,0.5,2.1,1.9,1.6,3.3c-0.5,1.3-1.9,2.1-3.3,1.6c-7.4-6.8-19.2-19.3-28.3-22.5
		c-55.4-19.6-67.1,53.7-7.2,68c-3.4-5.4-6.8-10.8-10.3-16c-0.8-1.1-0.6-2.7,0.5-3.6c1.1-0.8,2.7-0.6,3.6,0.5
		c40.2,60.6,75.2,135.2,85.3,208.2c11.5-46,55.6-78.4,99.8-89.7c29.8-7.6,63.4-9,90.2,2.1C743,185.9,687.7,136.8,644.6,76.7z
		 M594.9,131.1c22.4,29.9,50.3,60.1,70.5,88.9c0.2,1.4-0.7,2.7-2.1,2.9c-1.4,0.2-2.7-0.7-2.9-2.1c-20.3-20.8-51.6-62.7-69.8-87.1
		c-0.7-1.2-0.3-2.8,0.9-3.5C592.6,129.5,594.2,129.9,594.9,131.1z M634,108.2c6.3,7,67.4,69.8,67.1,79.3c-0.2,1.4-1.6,2.3-3,2.1
		c-1.3-0.2-2.2-1.4-2.1-2.7c-2.9-8.2-59.3-68-66.1-75.6c-0.9-1.1-0.6-2.7,0.5-3.6C631.6,106.9,633.2,107.1,634,108.2z M619.3,355
		c-24.8,5.6-2.6,18.9,10.3,9.2c1-1,2.7-0.9,3.6,0.2c1,1,0.9,2.7-0.2,3.6c-21,15.6-47.9-10.6-14.6-18.1c1.4-0.2,2.7,0.7,2.9,2.1
		C621.7,353.4,620.7,354.7,619.3,355z M768.6,350.9c0.1,0.3,0.1,0.5,0.1,0.8l0,0l0,0l0,0c0,0.2-0.1,0.4-0.1,0.5
		c-0.9,4.4-3.5,7.3-7.3,9.8c-44,29.3-54.3-25.5-33.8-28.3c0.2-0.1,0.5-0.1,0.7-0.1h0l0,0l0,0l0,0l0,0l0,0l0,0l0,0l0,0l0,0l0,0l0,0
		l0,0l0,0l0,0l0,0l0,0l0,0l0,0l0,0l0,0l0,0l0,0l0,0l0,0l0,0l0,0l0,0l0,0l0.1,0l0,0l0,0l0,0l0,0l0,0l0,0l0,0l0,0l0,0l0,0l0,0l0.1,0
		l0,0l0,0l0.1,0.1l0,0l0,0l0,0l0,0l0,0l0,0l0,0l0,0v0l0,0h0l0.1,0.1l0,0l0,0l0,0l0.1,0.1l0,0l0,0l0,0l0,0l0,0l0,0l0,0l0,0l0,0l0,0
		l0,0l0,0l0,0l0,0l0,0l0,0l0,0l0,0l0,0l0,0.1l0,0l0,0.1l0,0l0,0.1l0,0l0,0.1l0,0l0,0.1l0,0l0,0.1v0l0,0.1l0,0.1l0,0l0,0.1v0l0,0.1
		l0,0l0,0.1l0,0l0,0.1l0,0l0,0.1l0,0l0,0.1l0,0l0,0.1l0,0l0,0.1l0,0v0l0,0.1v0l0,0l0,0l0,0l0,0l0,0l0,0l0,0l0,0.1l0,0l0,0l0,0l0,0
		l0,0l0,0l0,0l0,0l0,0l0,0l0,0l0,0l0,0l0,0l0,0l0,0l0,0l0,0l0,0l0,0.1C720,366.6,766.3,336.5,768.6,350.9z M723.8,342.2
		c-4.8,9.7,2.9,36.7,34.5,15.8c2.1-1.4,4.2-3.3,5-5.8C752.8,350.4,719.9,365.3,723.8,342.2z M780.8,351c-0.1,0.3-0.1,0.6-0.1,0.9v0
		l0,0l0,0l0,0c0,0.2,0.1,0.4,0.1,0.6c0.7,3.2,2.5,5.4,5.4,7.3c31.8,21.2,40-18.9,24.4-21.2c-0.2-0.1-0.5-0.1-0.7-0.1h0l0,0l0,0l0,0
		l-0.1,0l0,0l0,0l0,0l0,0l0,0l0,0l0,0l0,0l-0.1,0l0,0l0,0l0,0l0,0l0,0l0,0l0,0l0,0l0,0l0,0l0,0l0,0l0,0l0,0l0,0l0,0l0,0l0,0l0,0l0,0
		l0,0l0,0l0,0l0,0l-0.1,0l0,0l0,0l-0.1,0.1l0,0l0,0l0,0l0,0l0,0c-0.1,0.1-0.1,0.1-0.2,0.2l0,0l0,0l0,0l0,0l0,0l0,0l0,0l0,0l0,0l0,0
		l0,0l0,0l0,0l0,0l-0.1,0.1l0,0l0,0l0,0l0,0l0,0l0,0l0,0l0,0l0,0.1l0,0l0,0.1l0,0l0,0.1l0,0l0,0.1l0,0l0,0.1l0,0l0,0.1v0l0,0.1v0
		l0,0.1h0l0,0.1l0,0l0,0.1l0,0l0,0.1l0,0l0,0.1l0,0l0,0.1l0,0l0,0.1l0,0l0,0.1l0,0l0,0l0,0l0,0l0,0l0,0l0,0l0,0l0,0v0v0v0l0,0l0,0
		l0,0l0,0l0,0l0,0l0,0l0,0l0,0l0,0l0,0l0,0l0,0l0,0l0,0l0,0l0,0l0,0l0,0l0,0l0,0l0,0c0,0.1,0.1,0.2,0.1,0.3
		C814.5,361.4,782.8,339.8,780.8,351z M813.3,351.2c-0.8,7.1-7.6,15.3-24.1,4.4c-1-0.6-2.1-1.6-2.8-2.7
		C793.9,352.9,810,358.8,813.3,351.2z M747.2,301.5c-4.8-1.2-14.3,3-17.6,6.1c-0.4,0.9-1.3,1.5-2.3,1.5c-1.4,0-2.6-1.2-2.6-2.6
		c0.7-5.7,16.9-11.7,24.3-9.8c1.3,0.5,2,2,1.5,3.3C750,301.3,748.5,301.9,747.2,301.5z M793.6,298.3c6.6,0.8,12.3,3.6,17.2,8.2
		c1.3,0.5,2,1.9,1.6,3.3c-0.5,1.3-1.9,2-3.3,1.6c-5.3-3.7-9-7-15.5-7.9c-1.4,0-2.6-1.2-2.6-2.6C791,299.4,792.2,298.3,793.6,298.3z
		 M695.9,522c2.1,0,3.7,1.7,3.7,3.7c0,2.1-1.7,3.7-3.7,3.7c-2.1,0-3.7-1.7-3.7-3.7C692.2,523.7,693.9,522,695.9,522z M696.6,547.5
		c2.1,0,3.7,1.7,3.7,3.7c0,2.1-1.7,3.7-3.7,3.7c-2.1,0-3.7-1.7-3.7-3.7C692.9,549.1,694.6,547.5,696.6,547.5z M696.9,569.5
		c2.1,0,3.7,1.7,3.7,3.7c0,2.1-1.7,3.7-3.7,3.7c-2.1,0-3.7-1.7-3.7-3.7C693.2,571.1,694.9,569.5,696.9,569.5z M617.2,671.4
		c-4.4-5.1-10.3-12.2-16.4-18.8c-1.1-0.2-1.9-1.1-2-2.3c-8.8-9.6-17.3-17.8-20.7-17.8c-16.7,0.4,16.5,38.7,23.6,46.7
		C605.8,674.4,609.6,670.8,617.2,671.4z M623.9,678.3c-0.4-0.1-0.7-0.2-1-0.4c-20.1-8.3-15.2,23.3-59.2,25.9
		c-10.9,22.3-8.8,25.8-5,45.9c13,2.2,22.9,3.8,24.3,20.6c0,1.4-1.2,2.6-2.6,2.6c-1.4,0-2.6-1.2-2.6-2.6c-0.2-2.9-0.9-5.3-1.8-7.1
		c-15.7,6.6,20.7,32.1,22.6-6.9c0-0.6,0.2-1.1,0.5-1.5c-0.3-1.5-0.5-3.2-0.5-5c0-1.4,1.2-2.6,2.6-2.6c1.4,0,2.6,1.2,2.6,2.6
		c0.1,8.1,4.2,12.2,8.1,12c1.8-1.7,3.8-3.3,5.7-4.9c0.8-2,1.3-4.7,1.1-8.1c0,0-2.3-21.2-2.3-21.2c0.1-1.4,1.3-2.5,2.8-2.4
		c1.4,0.1,2.5,1.3,2.4,2.8l1.1,9.9c22.8,7.4,18-2.5,13.2-23.4c-4.1-3.3-8.8-7.3-10.5-9.8c-0.9-0.6-1.3-1.6-1.1-2.7
		c0.3-1.4,1.7-2.2,3.1-1.9c0.9,0.3,1.9,0.9,2.2,1.8c7.1,6.7,13.3,12.2,21.7,17.5c4.3,2.7,17.8,8.1,22.7,5.5c0.2-0.7,0.7-1.4,1.4-1.7
		l0.2-0.1c0.1-0.2,0.1-0.4,0.2-0.7c-11.6-10.3-0.1,0-19.4-18.3C640.7,689.2,630.8,681.5,623.9,678.3z M603.9,648.4
		c8.9,9.8,17.5,20.2,21.6,24.8c1.2,0.4,2.5,0.9,3.9,1.5c10.6,4.4,35.1,29.2,47,42.7c0.2-0.1,0.4-0.2,0.6-0.2
		c25.5-7.2,65.5-23.5,103.9-31.2c-0.5-0.5-0.8-1.1-0.8-1.9c1.2-18.9,7-71,3.7-88.8c-6-32.3-10.5-71,1.1-103.3
		c-0.2-0.5-0.3-1-0.2-1.5c0.2-0.8,0.7-1.5,1.4-1.8l0.1-0.3l-6.2-4.1c-57.7-29.2-5.5,98.8-72.9,108.4c-66.5,9.5-47-72.7-51.5-114
		c-1.1-1.6-2.1-3.2-2.8-4.7c-9.8-0.3-32.4,3.9-41.5,5.5c1.1,1.5,2.2,3.7,3.1,6.4c0.9,0.4,1.4,1.3,1.4,2.4c0,0.4-0.1,0.8-0.3,1.1
		c4.3,15,6,42.1-2.4,72.1c-9,32.3-8.3,12.9-9.1,51C603.9,623.5,603.9,637.1,603.9,648.4z M598.2,682.7c-1.7-2.1-50.4-54.5-20.3-55.3
		c4.4-0.1,12.4,6.9,20.8,15.5c0-10.1,0-21.2,0.2-30.4c0.4-19.8,0.5-24.4,1.9-29.2c-0.5-0.5-0.9-1.2-0.9-1.9
		c-0.2-9.3-1-14.5-2.6-23.1c-44.3,12.4-90.4,47.1-79.7,98c4.2,19.9,14.4,27.9,31.7,36c0.3,0.1,0.6,0.3,0.9,0.5
		c4.7-3.5,10-2.7,15.2,5.3c0.1,0.1,0.1,0.3,0.2,0.4c18.9-1.6,27-8.8,32.8-15.4C598.3,682.9,598.3,682.8,598.2,682.7z M909.4,753.2
		c86.6,0.2,161.2,10.1,248.3,11.6l242.3,4.3v5.1c-95.4,1.8-192.5-1.3-242.8-4.3c-87.2-5.2-152.1-4.2-249.9-11.6
		c0,0.1-0.1,0.2-0.1,0.2c-0.1,0.2-0.2,0.4-0.3,0.6l-8.8,20.6l-7.9,22.5c-12.2,28.8-44,66.6-79,62.9c-0.3,0.1-0.6,0.1-0.9,0.1
		c-30,3.5-63.2,13.3-92.5,12.4c-46.6-1.4-97.7-40.8-118.2-81.1c0-0.1-0.1-0.2-0.1-0.3l0,0c-6.8-9.5-1.6-20.2,8-30.3
		c-1.6-0.7-3.1-1.7-4.4-3.1c-6.5,40.7-52.8,7.6-30.4-3.8c-3.4-2.6-8.1-3.3-13.4-4.1c-0.4,3.5-1.6,6.9-5.8,7.1
		c-2.8,0.2-5.3-0.3-7.4-1.3c-64,0.1-128.2,1-192.1-2.2c-119.8-6-234.7-7.2-353.9-7.3v-5.1c119.3,0.1,234.3,1.3,354.2,7.3
		c59.6,3,119.7,2.4,179.5,2.2c-12.9-4.9-26.1-10.7-37.9-16.1C433.7,711,442,646,469.7,593c28.4-54.2,72.6-96.5,133.3-105.9
		c0.7-4.6,1.7-7.5,2.9-8.9c0-0.2-0.1-0.4-0.1-0.6c0-1.4,1.2-2.6,2.6-2.6c7.5-1.2,29.7-6.1,42.8-6c-0.7-6.9,5.3-13.2,25-18.7
		c6.9-29.7,7.1-37.4-25.2-61.7l-7.1-4.6l-1.8-1.2c-24.1,9.7-45.6,11.9-51.4-21.1c-2.4-13.7,3.4-24.9,12.8-28.6
		c-7.1-66.4-36.4-135.2-71.7-193.3c-0.2,0-0.5,0.1-0.7,0c-71.5-13.8-57.1-99.8,4.9-79c3-26.9,30.6-38.6,54.3-22.7
		c4.8-41.1,44.6-25.4,55.2,14.5l3.2,21.4c53.4,73.3,113.7,120.5,179.2,182.5c0.4,0.5,0.6,1.2,0.5,1.8c5.3,6.6,9.8,14.5,13.1,23.7
		c0,0.4-0.2,0.8-0.4,1.2c15.6,21.7,19.7,50.5,4.2,77.2c-42.4,73.4-110.7,50.3-127.3,89.7c10.1,0,20.2,3.9,24.5,14.4
		c0.4,1,0.6,2.1,0.7,3.1c6.4,4.2,9.2,5.4,15.8,8.6c8-2.1,20.3,1.6,39.6,14.3c0.6,0.5,1,1.2,1,2c79,29.6,143.1,129.1,127.6,212.9
		c-3.2,17.4-5.6,20.1-12.9,35.8c-0.1,0.1-0.1,0.3-0.2,0.4l0,0l0,0l0,0l0,0l0,0l0,0l0,0l0,0l0,0l0,0l0,0l0,0l0,0l0,0l0,0l0,0l0,0l0,0
		l0,0C910.9,749.9,911.6,748.1,909.4,753.2z M489.9,788.2c-24.4-11.9-114.1,13.4-36.1,17.6c5.1,0.3,62.9-2.9,51.6-14.3
		c-2.8-2.9-7.2-4.1-11.4-4.9c-0.1,0.4-0.2,0.7-0.4,1C492.7,788.8,491.1,789,489.9,788.2z M512.1,794.5c0.9,0.4,1.6,1.3,1.6,2.4
		c0.2,13-3.1,30.8-3.8,46.3c-1.4,32.5,7.7,55-31.7,56.2c-30.5,0.9-60.8,2.5-60.4-33.3c0.3-27.9,0.6-37.9-2.7-66.8
		c0-1.4,1.2-2.6,2.6-2.6l0.1,0c4.9-10.9,42.6-22.7,68.2-15.3c0.5-0.5,1.1-0.8,1.9-0.8c7,1,17.3,2,22,8.2
		C511.4,790.9,512.1,792.8,512.1,794.5z M504.5,878.6c-10.6,9.1-53.1,0.2-62.8-2c-13.5-3.1-8-47.9-7.6-56.6c0-1.2,0.9-2.3,2.1-2.5
		c0.4-0.4,1-0.6,1.7-0.6c22.3,3,48.7,8.1,69.7-3.2c0.5-4.5,0.8-8.9,0.9-13.1c-11.7,9.1-48.3,10.8-54.9,10.4
		c-17.6-0.9-27.8-3.5-32.7-6.7c2.7,25.1,2.4,35.6,2.1,61.8c-0.4,32.1,27.8,29,55.3,28.1C496.9,893.6,502.8,888.3,504.5,878.6z
		 M439.2,822.2c-0.6,10.1-2.9,47.9,3.4,49.4c11.2,2.6,50.1,10.5,59,2.7c0.5-1.2,1.9-1.8,3.2-1.4c0.1,0,0.2,0.1,0.2,0.1
		c0.3-7.9-0.8-17.9-0.3-30.1c0.3-7.4,1.2-14.7,2-21.7C494.2,831.1,448.4,823.6,439.2,822.2z M573.4,866.8c-0.3-0.2-0.6-0.4-0.8-0.7
		l-0.8-0.7c-13.6-11.9-14.9,3.9,2.5,19.1c39.2,34.4,32.4,19.1,61.9,68.2c15.7,26.1,81.6-18.2,21.1-29.5
		C619.3,916.1,600.9,892.8,573.4,866.8z M657.8,918.1c71.4,13.3-5.1,72-26,37.3c-29.1-48.5-22-32.8-60.8-66.9
		c-24.6-21.6-15.9-31.6-6-32.2C581.1,855.3,608.5,908.9,657.8,918.1z M636.4,930c8.9,14.3,13.2,15,29,10.1c1.3-0.5,2.8,0.2,3.3,1.6
		c0.5,1.3-0.2,2.8-1.6,3.3c-18.4,5.7-24.9,4.2-35.2-12.5c-0.7-1.2-0.2-2.8,1-3.5C634.2,928.3,635.7,928.7,636.4,930z M910.1,817.5
		c26.9,4,62.5,16.8,81-4.8C981.1,799.1,892.4,801.8,910.1,817.5z M912.2,865.5c-0.5-0.7-0.6-1.7-0.3-2.5
		c-1.4-12.2-3.6-24.6-9.5-44.4c-0.3-0.7-0.2-1.4,0-2c-11.2-21.6,101.8-23.1,94.1-2.7c-0.1,0.4-0.3,0.8-0.5,1.1
		c0.2,0.4,0.4,0.8,0.4,1.2c-2.3,28.1-4.9,60.9-8.3,88.5c-3.2,25.7-68.5,28.9-72.1,0.5C913.9,888.1,913.3,876.6,912.2,865.5z
		 M986.7,870c-0.1-0.1-0.2-0.2-0.2-0.3c-16.1-1.9-29.3,20.5-68.8-0.8c0.9,9.9,1.7,20.6,3.6,35.9c2.8,22.1,59.5,18.6,61.8-0.4
		C984.4,893.5,985.6,881.8,986.7,870z M917,862.7c36.7,21.1,60.8,1.1,70.2,1.7c1.3-14.4,2.5-28.9,3.7-42.6
		c-17.1,14.3-60.9,4.4-78.5,1.3c-0.8,0.8-2.1,0.9-3.1,0.3c-0.1-0.1-0.2-0.2-0.4-0.3C913.8,840.1,915.7,851.4,917,862.7z
		 M823.4,900.9c-41.2-15.2-74.5,69.4,4.1,35.2c8.8-3.8,15.9-20.9,2.6-31.9c-2.4-2-2.5-3-4-3.6C825.3,901.1,824.3,901.3,823.4,900.9z
		 M776.7,939.7c-70.8,2.3-9.2-62.2,34-48.9c1.1,0.5,1.7,1.8,1.4,3c3-0.1,6,0.3,9.2,1.1c0.2-0.1,0.5-0.1,0.8-0.1
		c8,0.6,6.5,1.4,11.4,5.5c16,13.5,8.4,35.2-4.1,40.6C797.9,954.5,781.9,950.1,776.7,939.7z M805,894.7c-32.5-5.4-88.2,41-29.9,40
		C772.6,920,785.5,899.1,805,894.7z M880.5,743c-21.7,4.5-16.3-31-71.9,23.3c-2,1.9-4.2,4-5.7,6.3c3.4,3.7-2.1,14.3,28.1,1.4
		c8.4-3.6,30.7-14.4,23.6,7.1c-7,21.3-94.7,24.2-81.4,35.9c7.4,6.6,37.9,0.6,49.6-1.1c1.1-0.9,2.7-0.8,3.6,0.3
		c0.9,1.1,0.8,2.7-0.3,3.6c-7.7,1.8-21.9,4.8-34.4,5.3c-0.5,0.6-1.2,1-2,1c-70.2,12.4-17.7,31.9,37.6,6.8l10.8-4.8
		c1.4,0.1,2.5,1.4,2.3,2.8c-0.1,1.4-1.4,2.5-2.8,2.3c-18.1,9.6-35.1,14.5-49.2,16.2c-6.3,17.1,18.1,9.1,30,5.6
		c18.2-5.4,16.7-9.7,25.7-14.3c1.3-0.5,2.8,0.2,3.3,1.6c0.5,1.3-0.2,2.8-1.6,3.3c-0.5,0.3-0.4,0.2-1,0.7c-6,5-16.8,10.5-27.8,14.1
		c30.1-0.7,57.8-35.1,68.2-59.6l8-22.7l8-18.6c-0.1-0.1-0.1-0.1-0.1-0.2c-5.2-6.4-11.6-13.9-19.7-16.8
		C881.2,742.7,880.9,742.9,880.5,743z"/>
	<path fill-rule="evenodd" clip-rule="evenodd" fill="#FBFFEB" d="M546.5,696.6c-18.3-8.7-29.3-17.7-33.8-39.2
		c-11.4-54.3,37.2-91.4,84.7-104.3l2.1,0c1.4,0,2.6,1.2,2.6,2.6c1.4,6.6,2.2,11.3,2.7,16.6c1-3,2.2-6.8,3.6-11.9
		c2.4-8.5,7.7-50.3,3.7-69.2c-63.1,6.2-109,49.5-137.7,104.3c-26.2,50-35.6,112.3,23.5,139.4c12.6,5.8,26.9,11.9,40.4,17.2
		C531.8,736.8,537.2,708.6,546.5,696.6"/>
	<path fill-rule="evenodd" clip-rule="evenodd" fill="#C9EACB" d="M603.9,648.4c8.9,9.8,17.5,20.2,21.6,24.8
		c1.2,0.4,2.5,0.9,3.9,1.5c10.6,4.4,35.1,29.2,47,42.7c0.2-0.1,0.4-0.2,0.6-0.2c25.5-7.2,65.5-23.5,103.9-31.2
		c-0.5-0.5-0.8-1.1-0.8-1.9c1.2-18.9,7-71,3.7-88.8c-6-32.3-10.5-71,1.1-103.3c-0.2-0.5-0.3-1-0.2-1.5l1.5-2.1l-6.2-4.1
		c-57.7-29.2-5.5,98.8-72.9,108.4c-66.5,9.5-47-72.7-51.5-114c-1.1-1.6-2.1-3.2-2.8-4.7c-9.8-0.3-32.4,3.9-41.5,5.5
		c1.1,1.5,2.2,3.7,3.1,6.4c0.9,0.4,1.4,1.3,1.4,2.4c0,0.4-0.1,0.8-0.3,1.1c4.3,15,6,42.1-2.4,72.1c-9,32.3-8.3,12.9-9.1,51
		C603.9,623.5,603.9,637.1,603.9,648.4"/>
	<path fill-rule="evenodd" clip-rule="evenodd" fill="#FBFFEB" d="M695.9,522c4.9,0,4.9,7.4,0,7.4C691,529.5,691,522,695.9,522
		 M696.6,547.5c4.9,0,4.9,7.4,0,7.4C691.8,554.9,691.8,547.5,696.6,547.5z M696.9,569.5c4.9,0,4.9,7.4,0,7.4
		C692,576.9,692.1,569.5,696.9,569.5z M661.2,485.8c2,42.9-11.3,110,45.3,101.9c50.7-7.2,25.7-90.4,46.9-108.6
		c-4.1-1.9-6.8-3.3-10.9-6c-4.1,13.1-22.8,29.9-31,39.8l-3,1.7l-0.1,0l-0.1,0l-1.6-1.6c-6.7-11.3-4.2-6.9-9.6-16.7
		c-8.5,14.2-14.9,29.9-19.4,13.6C675.3,501.4,667.6,493.3,661.2,485.8z"/>
	<path fill-rule="evenodd" clip-rule="evenodd" fill="#FBFFEB" d="M660.6,477.6c6.3,8.2,18.4,18.1,21.9,30.9
		c3.6-5.8,7.4-11.3,11.3-16.9c-0.2-0.2-0.3-0.5-0.4-0.8c-6.2-6.5-28.5-13.5-25.6-28.2c0.8-3.2,5.9-2,4.9,1.4
		c-0.1,0.6-0.2,1.3-0.1,1.9l2.3-9.9c-14,4.2-18.6,8.6-18.2,13.5c1.7,0.3,2.9,0.7,3.1,2.8C660.1,474,660.4,475.7,660.6,477.6"/>
	<path fill-rule="evenodd" clip-rule="evenodd" fill="#FBFFEB" d="M716.9,462.7c-0.9,15.3-10,13.9-17.5,27.4l0.1,0.1
		c7.4,13.1,4.9,8.8,9.9,17.5c9.8-11.9,33.8-33,27.6-42.9c-5.4-8.7-12.3-10-20.7-9.7c-0.4,1.6-0.8,3.4-1.1,5.2
		C716.2,460.6,716.9,461.6,716.9,462.7"/>
	<path fill-rule="evenodd" clip-rule="evenodd" fill="#FCD3BF" d="M708.1,371.6c32.4,0.6,44.6,1.1,76.5-2.6l3,1.6l0,0.1l-0.2,2.1
		c-2.1,5.5-6.2,9-10.9,12.5l-0.6,0.4c-27.5,14.1-49,17-70.8-10.2C704.5,374.7,704,371.7,708.1,371.6 M619.3,355
		c-24.8,5.6-2.6,18.9,10.3,9.2c2.9-2.4,5.8,1.8,3.5,3.8c-21,15.6-47.9-10.6-14.6-18.1C621.7,349.3,622.7,354.4,619.3,355z
		 M774.7,348c-3,0.2-3.8-4.9,0-5.1c19.1-2.5,10.9-15.6,0.5-24.5c-2.7-2.2,0.6-6.1,3.2-4C794.3,328,798.1,345.1,774.7,348z
		 M786.3,359.8c-3-2-6.2-6.1-5.5-8.8c2-11.2,33.6,10.3,26.8-8.8l-0.1-1.8l3.1-1.8C826.3,340.9,818.1,381.1,786.3,359.8z
		 M761.2,362.1c-44,29.3-54.3-25.5-33.8-28.3l2.4,0.6l0,0l0.6,2.9c-10.4,29.2,36-0.9,38.2,13.5l0,1.4
		C767.6,356.7,765.1,359.6,761.2,362.1z M747.2,301.5c-4.8-1.2-14.3,3-17.6,6.1c-2.3,3.2-5,0.6-4.9-1.1c0.5-7.4,28.8-14.8,25.8-6.5
		C750,301.3,748.5,301.9,747.2,301.5z M809.1,311.3c-5.3-3.7-9-7-15.5-7.9c-3.6-0.2-3.2-5.1,0-5.1c6.6,0.8,12.3,3.6,17.2,8.2
		C814.7,308.8,811.1,312.3,809.1,311.3z M709.5,464.9c5.7-66.2,85.1-27.2,131.3-107.1c15.9-27.4,9.7-56.4-7.8-76.9
		c-0.2,0.1-0.4,0.2-0.7,0.3c-17.7,1.5-18.8,1.4-36.3-4.1c-55.2-17.3-29.2-12.8-84.3-6.8c-26.8,2.9-30.1-5.5-32,5.3
		c-7.2,41.1-28.2,23-37.5,78.8c-0.3,2.3-2.7,3-4.1,1.8c-2.4,0.4-2.8-2-5-4.8c-0.6-0.7-1.2-1.4-1.7-2.1c-19-23.2-39.5-10.8-35.6,11.5
		c5.3,30.1,24.1,25.5,45.5,16.7l2.5,0.3l10.2,6.7c40.1,30.1,33.8,36.3,23,84.6c0,1.1-0.7,2-1.7,2.4c5,5.6,15.4,10.3,20.3,14.7
		c6.1-9.9,12.9-11.8,15.2-18.9C710.1,466.8,709.5,465.9,709.5,464.9z"/>
	<path fill-rule="evenodd" clip-rule="evenodd" fill="#E0BB14" d="M637.9,349.6c10-52.7,30-36.8,36.7-74.9c0.2-1.2,0.5-2.3,0.8-3.2
		c-3.6,2.4-7.4,5-11.2,7.9c-17.8,13.3-46.4,45.8-26.8,69.3L637.9,349.6z"/>
	<path fill-rule="evenodd" clip-rule="evenodd" fill="#FBFFEB" d="M626.3,337.3c-4.5-23.3,18.8-49.9,35-62.1
		c45.3-34,77.2-34.7,126.5-25.7c16.6,3,31.4,10.8,42.9,21.7c-26.4-42.1-72.7-45.5-122.1-32.9c-45.1,11.5-90.1,45.9-97.6,93.4
		C615.7,331.7,621,333.5,626.3,337.3"/>
	<path fill-rule="evenodd" clip-rule="evenodd" fill="#FED314" d="M686.5,264.8c5.9,0.1,14.1,1.5,24.8,0.4
		c55.9-6.1,30.7-10.4,86.4,7.1c15.1,4.7,17.1,5.3,31.1,4.1c-11-11-25.5-18.9-41.4-21.8C747.7,247.4,720,246.2,686.5,264.8"/>
	<path fill-rule="evenodd" clip-rule="evenodd" fill="#FBFFEB" d="M594.9,131.1c22.4,29.9,50.3,60.1,70.5,88.9
		c0.2,1.4-0.7,2.7-2.1,2.9c-1.4,0.2-2.7-0.7-2.9-2.1c-20.3-20.8-51.6-62.7-69.8-87.1C588.7,131,593.1,128,594.9,131.1 M696,187
		c-2.9-8.2-59.3-68-66.1-75.6c-2.1-2.5,2-5.9,4.1-3.1c6.3,7,67.4,69.8,67.1,79.3C700.9,189.8,696.6,191.2,696,187z M607.6,323
		c11.5-46,55.6-78.4,99.8-89.7c29.8-7.6,63.4-9,90.2,2.1C743,185.9,687.7,136.8,644.6,76.7l-0.9-1.8l-3.1-21.1
		c-9-33.8-42.2-51.2-45.3-13.6c0,0.5-0.1,0.9-0.3,1.3c9.6,8.2,11.5,14.5,16.7,20c2.6,2.8-1.4,5.9-3.5,3.8c-6.8-8.2-1.2-1.2-7.2-9.6
		c-22.2-31.3-57-22.3-59.8,5.4c0,0.6-0.2,1.1-0.5,1.6c8.8,4.6,19.4,14.5,25,21c1.3,0.5,2.1,1.9,1.6,3.3c-0.5,1.3-1.9,2.1-3.3,1.6
		c-7.4-6.8-19.2-19.3-28.3-22.5c-55.4-19.6-67.1,53.7-7.2,68c-3.4-5.4-6.8-10.8-10.3-16c-2-2.9,2.3-5.7,4.1-3.1
		C562.4,175.4,597.5,250,607.6,323z"/>
	<path fill-rule="evenodd" clip-rule="evenodd" fill="#FBFFEB" d="M780.7,374.6c-26.3,3-40.9,3.5-67.6,2.3
		c18.8,20.4,37.3,16.2,60.5,4.3C775.8,379.5,778.6,377.2,780.7,374.6"/>
	<path fill-rule="evenodd" clip-rule="evenodd" fill="#FED314" d="M723.8,342.2c-4.8,9.7,2.9,36.7,34.5,15.8c2.1-1.4,4.2-3.3,5-5.8
		C752.8,350.4,719.9,365.3,723.8,342.2"/>
	<path fill-rule="evenodd" clip-rule="evenodd" fill="#FED314" d="M789.2,355.6c16.5,11,23.3,2.8,24.1-4.4
		c-3.4,7.6-19.4,1.7-26.9,1.7C787.2,354,788.3,354.9,789.2,355.6"/>
	<path fill-rule="evenodd" clip-rule="evenodd" fill="#FBFFEB" d="M917.4,722.2c30.3-83.7-41.8-201.7-128-227.8
		c-10.5,30.3-6.7,66.5-1,97c1.8-2,3.2-3.9,3.7-6.8c-3.5-0.1-3.2-5.2,0-5.1c51.2,4.8,93,65.3,91.7,114.1l-1,16.3
		c4.7,1.8,13.2,9.3,28.4,26L917.4,722.2z"/>
	<path fill-rule="evenodd" clip-rule="evenodd" fill="#FCD3BF" d="M635.8,714.4c-4.1-3.3-8.8-7.3-10.5-9.8c-3.3-3.3,1.6-7,4.3-2.8
		c7.1,6.7,13.3,12.2,21.7,17.5c4.3,2.7,17.8,8.1,22.7,5.5l1.6-1.8l0.2-0.7c-11.6-10.3-0.1,0-19.4-18.3
		c-15.5-14.8-25.4-22.5-32.3-25.7c-0.4-0.1-0.7-0.2-1-0.4c-20.1-8.3-15.2,23.3-59.2,25.9c-10.9,22.3-8.8,25.8-5,45.9
		c13,2.2,22.9,3.8,24.3,20.6c0.1,3.1-5,3.6-5.1,0c-0.2-2.9-0.9-5.3-1.8-7.1c-15.7,6.6,20.7,32.1,22.6-6.9c0-0.6,0.2-1.1,0.5-1.5
		c-0.4-2.1-1.7-7.6,2.1-7.6c1.4,0,2.6,1.2,2.6,2.6c0.1,8.1,4.2,12.2,8.1,12c1.8-1.7,3.8-3.3,5.7-4.9c0.8-2,1.3-4.7,1.1-8.1
		l-2.3-21.2c0-2.8,5.1-3.6,5.1,0.4l1.1,9.9C645.4,745.3,640.6,735.3,635.8,714.4"/>
	<path fill-rule="evenodd" clip-rule="evenodd" fill="#FBFFEB" d="M553.7,750.1c-6.8-17.5-2.3-32.9,5.7-49.1
		c0.1-0.6,0.3-1.2,0.8-1.6c-9.8-12.3-27.1,22.4-16.5,51.5c6.7,5.7,9.9,9.3,10.6,2.5l-0.4-2.3C553.7,750.8,553.7,750.5,553.7,750.1"
		/>
	<path fill-rule="evenodd" clip-rule="evenodd" fill="#5E2716" d="M614.1,766.5c-9.2,8.7-15,18-10.9,26c2.8,5.5,17.7,7.7,35.3,8.2
		c1-16.5,8.9-4.6,21.9-21.7c3.6-4.7,8.9-7.7,14.1-10.3c-1.7-14.1-5.2-20.5-17.6-31.3c-7.4,4.1-22.5,12.6-35,22.5
		C620,763.5,617.2,765.8,614.1,766.5"/>
	<path fill-rule="evenodd" clip-rule="evenodd" fill="#5E2716" d="M679.9,725.4c20.6,19.4,29.9,26.6,38.8,31.4
		c0-1.6,1.5-2.9,3.4-2.4c18.1,4.2,18.4-22.7,53.1-21.7c24.2,0.7,26.1,2.3,48.1-1.8c7.6-1.4,10.9-0.3,17.7,2.9l0.4,0.3
		c21.4-10.4,25.8,4.7,36,4.1l-0.1-14.7l-5.8-12.1c-34-53.5-141.9-4.2-191.5,10.3l0.7,0.8C680.6,723.6,680.3,724.6,679.9,725.4"/>
	<path fill-rule="evenodd" clip-rule="evenodd" fill="#C9EACB" d="M756.2,780.5c-42.9-23-37.2-10.8-79.3-51.3
		c-7.2,4.5-22.3-2-30.6-7.1c4.4,3.5,8.2,6.6,11.4,9.4c0.9,0,1.7,0.4,2.2,1.2c0.2,0.3,0.3,0.7,0.4,1c20.4,18.2,19,25.8,21.4,65.6
		c5.4-0.4,10.1-0.9,13.9-1.3c-3.2-20-6.9-24.9-12.2-40.9c-1.5-3.5-4.7-6.9-1.6-8.6c3-1.7,4.2,2.8,4.6,3.2c0.6,0.5,1,1.2,1,2
		c6.5,12.7,26.5,49.2,34.1,35.5c1.9-3.5-15.7-22.6-25.4-32.7l-5.6-5.7c-4.1-2.5-0.1-5.9,1.7-4.9l4.6,4l5.7,5.6
		c16.3,13.3,43,18.1,46.7,31l11.8-3C759.4,782.2,757.7,781.3,756.2,780.5"/>
	<path fill-rule="evenodd" clip-rule="evenodd" fill="#FED314" d="M744.1,787.6c-1.6-6-15.2-11.1-28.9-18.3
		c7.8,9.3,13.2,17.8,10.2,22.8C731.7,790.7,737.9,789.2,744.1,787.6"/>
	<path fill-rule="evenodd" clip-rule="evenodd" fill="#FED314" d="M711.2,795.3c-4.8-3.1-9.8-9-14.3-15.4c1.3,4.6,2.4,9.8,3.6,17.5
		L711.2,795.3z"/>
	<path fill-rule="evenodd" clip-rule="evenodd" fill="#FED314" d="M676.5,799.6c-0.7-10.6-1-18.8-1.5-25.5
		c-3.5,1.9-7.9,4.6-10.1,7.3c-15.1,19-20.5,8-21.2,19.3C654.6,800.8,666.4,800.3,676.5,799.6"/>
	<path fill-rule="evenodd" clip-rule="evenodd" fill="#FED314" d="M737.6,765.5c0.7-1,2-1.4,3.2-0.9c17.9,5.9,30.3-16.2,54.2-6.9
		c3.3,1.2,1.4,6-1.7,4.9c-18.6-7.2-29.1,7.4-44.7,8.2c3.1,1.6,16.5,7.7,17.7,11.2c10.4-2.7,20.8-5.3,31.1-7.7
		c-0.7-3.8,6.5-10.5,7.7-11.7c12.9-12.6,22.9-20.6,30.9-25.4c-3.8-1.6-6.5-2.1-11.4-1.3c-22.7,4.1-24.6,2.7-49.6,1.9
		c-30.1-0.9-31.9,22.9-49.9,22.1C728.7,761.6,732.6,763.3,737.6,765.5"/>
	<path fill-rule="evenodd" clip-rule="evenodd" fill="#FCD3BF" d="M802.9,772.6c3.4,3.7-2.1,14.3,28.1,1.4
		c8.4-3.6,30.7-14.4,23.6,7.1c-7,21.3-94.7,24.2-81.4,35.9c7.4,6.6,37.9,0.6,49.6-1.1c1.1-0.9,2.7-0.8,3.6,0.3
		c0.9,1.1,0.8,2.7-0.3,3.6c-7.7,1.8-21.9,4.8-34.4,5.3c-0.5,0.6-1.2,1-2,1c-70.2,12.4-17.7,31.9,37.6,6.8l10.8-4.8
		c1.4,0.1,2.5,1.4,2.3,2.8c-0.1,1.4-1.4,2.5-2.8,2.3c-18.1,9.6-35.1,14.5-49.2,16.2c-6.3,17.1,18.1,9.1,30,5.6
		c18.2-5.4,16.7-9.7,25.7-14.3c2.6-1.1,5.3,3.2,1.7,4.9c-0.5,0.3-0.4,0.2-1,0.7c-6,5-16.8,10.5-27.8,14.1
		c30.1-0.7,57.8-35.1,68.2-59.6l8-22.7l8-18.6c-5.3-6.4-11.5-14.1-19.8-17c-0.3,0.2-0.6,0.4-0.9,0.5c-21.7,4.5-16.3-31-71.9,23.3
		C806.6,768.2,804.4,770.2,802.9,772.6"/>
	<path fill-rule="evenodd" clip-rule="evenodd" fill="#863B24" d="M849.1,781c13.4-23.6-37.8,19.4-49.4-3c-0.4,0.8-1.3,1.4-2.3,1.4
		c-30.9,7.4-63.4,17.1-94.3,22.7c-14,2.6-71.7,7.3-95-0.5c21.5,35.8,68.2,69.8,109.7,71c21.8,0.7,46.8-4.9,70.6-9.1
		c-5.2-1.7-7.7-5.9-5.5-13.5c-34.6,2.3-47.8-15.5-7-26.1c-2.5-0.7-4.5-1.7-6-3C747.8,801.3,840.9,795.3,849.1,781"/>
	<path fill-rule="evenodd" clip-rule="evenodd" fill="#C9EACB" d="M617.2,671.4c-4.4-5.1-10.3-12.2-16.4-18.8
		c-1.1-0.2-1.9-1.1-2-2.3c-8.8-9.6-17.3-17.8-20.7-17.8c-16.7,0.4,16.5,38.7,23.6,46.7C605.8,674.4,609.6,670.8,617.2,671.4"/>
	<path fill-rule="evenodd" clip-rule="evenodd" fill="#F0AF91" d="M513.6,796.8c0.2,13-3.1,30.8-3.8,46.3
		c-1.4,32.5,7.7,55-31.7,56.2c-30.5,0.9-60.8,2.5-60.4-33.3c0.3-27.9,0.6-37.9-2.7-66.8c-0.1-1.3,1.1-2.6,2.7-2.6
		c4.9-10.9,42.6-22.7,68.2-15.3c0.5-0.5,1.1-0.8,1.9-0.8c7,1,17.3,2,22,8.2c1.5,2.1,2.2,3.9,2.2,5.6
		C513,794.9,513.6,795.8,513.6,796.8 M565.1,856.2c16.1-0.9,43.4,52.6,92.7,61.8c71.4,13.3-5.1,72-26,37.3
		c-29.1-48.5-22-32.8-60.8-66.9C546.4,866.8,555.1,856.8,565.1,856.2z M916.1,905.3c-2.2-17.2-2.8-28.6-4-39.8
		c-0.5-0.7-0.6-1.7-0.3-2.5c-1.4-12.2-3.6-24.6-9.5-44.4c-0.3-0.7-0.2-1.4,0-2c-11.2-21.6,101.8-23.1,94.1-2.7l-0.5,1.1
		c0.2,0.4,0.4,0.8,0.4,1.2c-2.3,28.1-4.9,60.9-8.3,88.5C985,930.4,919.7,933.6,916.1,905.3z M776.7,939.7
		c-70.8,2.3-9.2-62.2,34-48.9c1.1,0.5,1.7,1.8,1.4,3c3-0.1,6,0.3,9.2,1.1c7.9-0.3,7.6,1.5,12.1,5.4c16,13.5,8.4,35.2-4.1,40.6
		C797.9,954.5,781.9,950.1,776.7,939.7z M603.1,762.9c-6.5,40.7-52.8,7.6-30.4-3.8c-3.4-2.6-8.1-3.3-13.4-4.1
		c-0.4,3.5-1.6,6.9-5.8,7.1c-2.8,0.2-5.3-0.3-7.4-1.3c-64,0.1-128.2,1-192.1-2.2c-119.8-6-234.7-7.2-353.9-7.3V980h1400V774.3
		c-95.4,1.8-192.5-1.3-242.8-4.3c-87.2-5.2-152.1-4.2-249.9-11.6l-9.3,21.4l-7.9,22.5c-12.2,28.8-44,66.6-79,62.9
		c-30.2,3.6-64,13.4-93.3,12.6c-46.6-1.4-97.7-40.8-118.2-81.1l-0.1-0.3c-6.8-9.5-1.6-20.2,8-30.3
		C605.9,765.4,604.4,764.3,603.1,762.9z"/>
	<path fill-rule="evenodd" clip-rule="evenodd" fill="#FBFFEB" d="M504.7,842.9c0.3-7.4,1.2-14.7,2-21.7c-12.5,9.9-58.3,2.4-67.5,1
		c-0.6,10.1-2.9,47.9,3.4,49.4c11.2,2.6,50.1,10.5,59,2.7c0.7-0.9,1.7-2.1,3.4-1.3C505.3,865.1,504.2,855.1,504.7,842.9"/>
	<path fill-rule="evenodd" clip-rule="evenodd" fill="#DD4A42" d="M504.5,878.6c-10.6,9.1-53.1,0.2-62.8-2
		c-13.5-3.1-8-47.9-7.6-56.6c0.1-2.3,3.3-3.2,3.7-3.2c22.3,3,48.7,8.1,69.7-3.2c0.5-4.5,0.8-8.9,0.9-13.1
		c-11.7,9.1-48.3,10.8-54.9,10.4c-17.6-0.9-27.8-3.5-32.7-6.7c2.7,25.1,2.4,35.6,2.1,61.8c-0.4,32.1,27.8,29,55.3,28.1
		C496.9,893.6,502.8,888.3,504.5,878.6"/>
	<path fill-rule="evenodd" clip-rule="evenodd" fill="#FBFFEB" d="M453.8,805.8c5.1,0.3,62.9-2.9,51.6-14.3
		c-2.8-2.9-7.2-4.1-11.4-4.9c-0.3,1.8-2.5,2.7-4,1.6C465.5,776.4,375.8,801.7,453.8,805.8"/>
	<path fill-rule="evenodd" clip-rule="evenodd" fill="#DD4A42" d="M631.9,932.5c-1.7-2.8,2.8-5.5,4.5-2.5c8.9,14.3,13.2,15,29,10.1
		c3.3-1.1,4.8,3.8,1.7,4.9C648.7,950.6,642.3,949.1,631.9,932.5 M571.8,865.4c-13.6-11.9-14.9,3.9,2.5,19.1
		c39.2,34.4,32.4,19.1,61.9,68.2c15.7,26.1,81.6-18.2,21.1-29.5c-38-7.1-56.4-30.3-83.9-56.4L571.8,865.4z"/>
	<path fill-rule="evenodd" clip-rule="evenodd" fill="#FBFFEB" d="M823.4,900.9c-41.2-15.2-74.5,69.4,4.1,35.2
		c8.8-3.8,15.9-20.9,2.6-31.9c-2.4-2-2.5-3-4-3.6C825.3,901.1,824.3,901.3,823.4,900.9"/>
	<path fill-rule="evenodd" clip-rule="evenodd" fill="#CCC3AF" d="M775.1,934.6c-2.4-14.6,10.5-35.5,29.9-40
		C772.5,889.2,716.8,935.7,775.1,934.6"/>
	<path fill-rule="evenodd" clip-rule="evenodd" fill="#2CBABC" d="M917.6,868.9c0.9,9.9,1.7,20.6,3.6,35.9
		c2.8,22.1,59.5,18.6,61.8-0.4c1.4-10.9,2.6-22.6,3.7-34.4l-0.2-0.3C970.3,867.8,957.2,890.2,917.6,868.9"/>
	<path fill-rule="evenodd" clip-rule="evenodd" fill="#FBFFEB" d="M917,862.7c36.7,21.1,60.8,1.1,70.2,1.7
		c1.3-14.4,2.5-28.9,3.7-42.6c-17.1,14.3-60.9,4.4-78.5,1.3l-3.4,0.1C913.8,840.1,915.7,851.4,917,862.7"/>
	<path fill-rule="evenodd" clip-rule="evenodd" fill="#CCC3AF" d="M910.1,817.5c26.9,4,62.5,16.8,81-4.8
		C981.1,799.1,892.4,801.8,910.1,817.5"/>
	<path fill-rule="evenodd" clip-rule="evenodd" fill="#FBFFEB" d="M903.5,754.1c3.5-8.4,2-4.8,5.5-13.5
		c-10.9-11.3-15.5-16.2-26.7-24c0,1.8,0,3.7,0.1,5.6l0.1,2.4c0.1,4.2,0.3,8.5,0.2,12.8C891.5,740.5,897.6,747,903.5,754.1"/>
	<path fill-rule="evenodd" clip-rule="evenodd" fill="#CCC3AF" d="M502.1,66.6c-23.2,13.4-18.2,56.7,26.3,67.3
		c-2.4-3.9-4.9-7.7-7.3-11.5C494.7,109.1,490,81.6,502.1,66.6"/>
	<path fill-rule="evenodd" clip-rule="evenodd" fill="#CCC3AF" d="M619,295.5c-6.1-71.1-96.8-180.7-96.8-180.7
		c40.2,60.6,75.2,135.2,85.3,208.2C610,313.2,613.9,304,619,295.5"/>
	<path fill-rule="evenodd" clip-rule="evenodd" fill="#CCC3AF" d="M545.7,65.7c4.7-25.6,37.7-32.8,59.4-2.7c1.2,1.7,4.3,3.6,3.1,2.3
		c-6.8-8.2-1.2-1.2-7.2-9.6c-22.2-31.3-57-22.3-59.8,5.4c0,0.6-0.2,1.1-0.5,1.6C542.3,63.4,544,64.5,545.7,65.7"/>
	<path fill-rule="evenodd" clip-rule="evenodd" fill="#CCC3AF" d="M636.3,42.1c-12.4-25.6-38.2-34.9-41-1.9c0,0.5-0.1,0.9-0.3,1.3
		c1.8,1.5,3.3,3,4.7,4.4C602.7,18,623.3,22.7,636.3,42.1"/>
	<path fill-rule="evenodd" clip-rule="evenodd" fill="#CCC3AF" d="M626.3,337.3c-3-15.8,6.7-33.1,18.3-46.4c0,0,55-78.5,165-42.9
		c-26.7-19.7-62.9-19.5-100.9-9.7c-45.1,11.5-90.1,45.9-97.6,93.4C615.7,331.7,621,333.5,626.3,337.3"/>
	<path fill-rule="evenodd" clip-rule="evenodd" fill="#F0AF91" d="M619.3,355c-24.8,5.6-2.6,18.9,10.3,9.2c2.9-2.4,5.8,1.8,3.5,3.8
		c-21,15.6-47.9-10.6-14.6-18.1C621.7,349.3,622.7,354.4,619.3,355 M674.8,383.2c-28.6-22.4,2.9-98.6,18.2-98.4
		c15.3,0.2,39.1-11.5,53.1-14.6c14.1-3.1,53,7.9,53,7.9c-0.9-0.3-1.9-0.6-3-0.9c-55.2-17.3-29.2-12.8-84.3-6.8
		c-26.8,2.9-30.1-5.5-32,5.3c-7.2,41.1-28.2,23-37.5,78.8c-0.3,2.3-2.7,3-4.1,1.8c-2.4,0.4-2.8-2-5-4.8c-0.6-0.7-1.2-1.4-1.7-2.1
		c-19-23.2-39.5-10.8-35.6,11.5c5.3,30.1,24.1,25.5,45.5,16.7l2.5,0.3l10.2,6.7c40.1,30.1,33.8,36.3,23,84.6c0,1.1-0.7,2-1.7,2.4
		c3.1,3.5,8.3,6.7,13,9.6c-3.4-3.3-2.7-6.5-1.8-16.6C688.1,449.8,703.4,405.6,674.8,383.2z"/>
	<path fill-rule="evenodd" clip-rule="evenodd" fill="#FFEAE0" d="M824.1,281.8c17.5,20.4,24.8,53.2,8.9,80.6
		c-10.8,18.6-23.4,30.8-36.4,39.3c15.8-8.7,31.3-21.7,44.2-44c15.9-27.4,9.7-56.4-7.8-76.9c-0.2,0.1-0.4,0.2-0.7,0.3
		C829.1,281.5,826.4,281.7,824.1,281.8"/>
	<path fill-rule="evenodd" clip-rule="evenodd" fill="#CCC3AF" d="M506.1,728.5c-59.1-27.1-49.7-89.4-23.5-139.4
		c14.4-27.6,33.2-52.2,56.4-70.7c-27,19-48.6,46.2-64.7,77c-26.2,50-35.6,112.3,23.5,139.4c12.6,5.8,26.9,11.9,40.4,17.2
		c-1.3-3.1-2.1-6.7-2.5-10.6C525.6,737.2,515.4,732.8,506.1,728.5"/>
	<path fill-rule="evenodd" clip-rule="evenodd" fill="#CCC3AF" d="M552.6,746.9c-3.7-0.1-8-1.6-11.2-4.1c0.5,2.7,1.3,5.4,2.2,8
		c6.7,5.7,9.9,9.3,10.6,2.5l-0.4-2.3c-0.1-0.3-0.1-0.6-0.1-1C553.3,749,552.9,748,552.6,746.9"/>
	<path fill-rule="evenodd" clip-rule="evenodd" fill="#F0AF91" d="M587.3,756.7c-4.2-10.9-29.2-10-29.2-10c0.2,0.9,0.4,1.9,0.6,2.9
		c13,2.2,22.9,3.8,24.3,20.6c0.1,3.1-5,3.6-5.1,0c-0.2-2.9-0.9-5.3-1.8-7.1c-15.7,6.6,20.7,32.1,22.6-6.9c0-0.6,0.2-1.1,0.5-1.5
		c-0.3-1.5-1.1-5,0.1-6.7C595.4,748.2,591.4,767.6,587.3,756.7"/>
	<path fill-rule="evenodd" clip-rule="evenodd" fill="#F0AF91" d="M604,753c1,5.9,4.5,8.9,7.9,8.7c1.8-1.7,3.8-3.3,5.7-4.9
		c0.8-2,1.3-4.7,1.1-8.1l-2.3-21.2C616.2,760.9,604.9,756.3,604,753"/>
	<path fill-rule="evenodd" clip-rule="evenodd" fill="#F0AF91" d="M638.4,725.3c2.1,18.5-16.3,7.6-16.3,7.6l0.6,5
		C641,743.9,641.5,738.6,638.4,725.3"/>
	<path fill-rule="evenodd" clip-rule="evenodd" fill="#512711" d="M721.4,866.3c-38.3-1.1-80.8-30-104.1-62.6
		c-3.4-0.6-6.5-1.3-9.2-2.2c21.5,35.8,68.2,69.8,109.7,71c21.8,0.7,46.8-4.9,70.6-9.1c-2.6-0.9-4.6-2.4-5.6-4.6
		C761.9,862.7,740.5,866.9,721.4,866.3"/>
	<path fill-rule="evenodd" clip-rule="evenodd" fill="#CCC3AF" d="M602,555.9c1.3,6.5,2.2,11.2,2.6,16.4c1-3,2.2-6.8,3.6-11.9
		c2.4-8.5,7.7-50.3,3.7-69.2c-2.4,0.2-4.8,0.5-7.2,0.9C608.1,508.5,604.6,541.8,602,555.9"/>
	<path fill-rule="evenodd" clip-rule="evenodd" fill="#CCC3AF" d="M799.4,571.2c-27.4-15.7-10-76.8-10-76.8
		c-10.5,30.3-6.7,66.5-1,97c1.8-2,3.2-3.9,3.7-6.8c-3.5-0.1-3.2-5.2,0-5.1c51.2,4.8,93,65.3,91.7,114.1l-1,16.3
		C893,612.1,826.8,586.9,799.4,571.2"/>
	<path fill-rule="evenodd" clip-rule="evenodd" fill="#CCC3AF" d="M742.5,473.1c0,0-3.6,96.7-22.4,110c32.4-19.3,14.3-87.7,33.3-104
		C749.3,477.1,746.6,475.7,742.5,473.1"/>
	<path fill-rule="evenodd" clip-rule="evenodd" fill="#CCC3AF" d="M661.4,497.9c5.2,6.1,10.2,12.4,12,19c3.7,13.4,8.7,5.2,15-6
		c-4.4,6.8-8,9.2-10.8-1.1c-2.3-8.5-9.9-16.5-16.4-24.1C661.4,489.7,661.4,493.7,661.4,497.9"/>
	<path fill-rule="evenodd" clip-rule="evenodd" fill="#CCC3AF" d="M697,496.3c-1.4,2.4-2.8,4.8-4.1,7.2c5.3,9.6,2.9,5.3,9.5,16.5
		l1.6,1.6l0.1,0l0.1,0l3-1.7c7.5-9,23.7-23.8,29.6-36.2c-7.4,10.6-19.3,21.8-25.4,29.2l-3,1.7l-0.1,0l-0.1,0l-1.6-1.6
		C699.9,501.6,702.4,506,697,496.3"/>
	<path fill-rule="evenodd" clip-rule="evenodd" fill="#9DB89E" d="M618.3,535.3c-0.9,8.4-2.5,17.2-5.1,26.4c-9,32.3-8.3,12.9-9.1,51
		c-0.2,10.8-0.2,24.4-0.2,35.7c8.9,9.8,17.5,20.2,21.6,24.8c1.2,0.4,2.5,0.9,3.9,1.5c-11.4-15.3-15.3-30.6-11.1-85.8
		C619.7,570.2,619.4,551.6,618.3,535.3"/>
	<path fill-rule="evenodd" clip-rule="evenodd" fill="#9DB89E" d="M778.3,524.7c0,0-7,56.7-0.2,70.7s-1.4,91.5-1.4,91.5
		c1.4-0.3,2.9-0.6,4.3-0.9c-0.5-0.5-0.8-1.1-0.8-1.9c1.2-18.9,7-71,3.7-88.8C779.8,573.4,776.4,548.5,778.3,524.7"/>
	<path fill-rule="evenodd" clip-rule="evenodd" fill="#F0AF91" d="M844.8,846.2c-6,5-16.8,10.5-27.8,14.1
		c30.1-0.7,57.8-35.1,68.2-59.6l8-22.7l8-18.6c-1-1.2-2-2.4-3.1-3.7l-7.6,17.5l-8,22.7c-6.4,15-19.3,33.8-35.3,46.2
		c0.4,1.1,0.1,2.5-1.6,3.3C845.4,845.8,845.4,845.8,844.8,846.2"/>
	<path fill-rule="evenodd" clip-rule="evenodd" fill="#F0AF91" d="M756.3,837.9c-3.5,6.4,18,10.4,45.7,3.7
		c10.2-2.7,21.4-6.9,33-13.1c1.4,0.1,2.7-0.9,2.8-2.3c0.1-1.4-0.9-2.7-2.3-2.8l-10.8,4.8C794.6,841.8,765.5,842.3,756.3,837.9"/>
	<path fill-rule="evenodd" clip-rule="evenodd" fill="#F0AF91" d="M773.2,817c5.6,5,24.5,2.8,38.4,0.6c4.7-0.9,8.8-1.8,11.9-2.5
		c1.1-0.9,1.2-2.5,0.3-3.6c-0.9-1.1-2.5-1.2-3.6-0.3c-11,1.7-38.5,7-48,2.2C771.5,814.5,771.7,815.7,773.2,817"/>
	<path fill-rule="evenodd" clip-rule="evenodd" fill="#F0AF91" d="M815.8,850.3c-8.2,2.5-22.5,7-28.4,3.9c0,10.1,18.5,4.6,29.4,1.3
		c-0.8,0.1-1.6,0.1-2.4,0.1c9.3-3.1,18.5-7.5,24.8-11.8c0.6-0.4,1.2-0.9,1.8-1.3c0.4-0.3,0.8-0.6,1.2-1c0.5-0.5,0.5-0.4,1-0.7
		c3.6-1.6,1-6-1.7-4.9C832.5,840.6,834,844.9,815.8,850.3"/>
	<path fill-rule="evenodd" clip-rule="evenodd" fill="#F0AF91" d="M804,774.7c1.5,4.3,1.4,10.2,27-0.7c5.5-2.4,17.2-7.9,22.4-5.2
		c-0.6-10.9-17.8-2.6-25,0.5C812.7,776,806.6,776.4,804,774.7"/>
	<path fill-rule="evenodd" clip-rule="evenodd" fill="#CCC3AF" d="M924.4,679.4c0,0-9.2,28.9-17.2,52.2c1.2,1.3,2.5,2.7,3.9,4.2
		l6.3-13.7C922.3,708.7,924.5,694.2,924.4,679.4"/>
	<path fill-rule="evenodd" clip-rule="evenodd" fill="#CCC3AF" d="M909,740.7c-1.3-1.4-2.5-2.6-3.7-3.8c-1.8,5.1-3.5,9.8-5,13.6
		c1.1,1.2,2.1,2.4,3.2,3.7C907,745.7,905.6,749.3,909,740.7"/>
	<path fill-rule="evenodd" clip-rule="evenodd" fill="#9DB89E" d="M606.3,674.6c-7.2-8.2-27.9-32.6-27.1-41.8
		c-0.4-0.1-0.8-0.2-1.1-0.2c-16.7,0.4,16.5,38.7,23.6,46.7C603.2,677.5,604.7,675.9,606.3,674.6"/>
	<path fill-rule="evenodd" clip-rule="evenodd" fill="#9DB89E" d="M691.9,743.3c-22.3-5.6-27.9-13.5-27.9-13.5
		c-6.3-1.6-13.1-4.9-17.8-7.7c4.4,3.5,8.2,6.6,11.4,9.4c0.9,0,1.7,0.4,2.2,1.2c0.2,0.3,0.3,0.7,0.4,1c20.4,18.2,19,25.8,21.4,65.6
		c5.4-0.4,10.1-0.9,13.9-1.3c-3.2-20-6.9-24.9-12.2-40.9c-1.5-3.5-4.7-6.9-1.6-8.6c3-1.7,4.2,2.8,4.6,3.2c0.6,0.5,1,1.2,1,2
		c6.5,12.7,26.5,49.2,34.1,35.5c1.9-3.5-15.7-22.6-25.4-32.7l-5.6-5.7c-4.1-2.5-0.1-5.9,1.7-4.9l4.6,4l5.7,5.6
		c16.3,13.3,43,18.1,46.7,31l11.8-3c-1.4-1.1-3.1-2-4.7-2.9C719.3,760.7,718.3,766.9,691.9,743.3"/>
	<path fill-rule="evenodd" clip-rule="evenodd" fill="#99302B" d="M574.3,884.5c39.2,34.4,32.4,19.1,61.9,68.2
		c5.2,8.7,15.9,9.6,25.8,6.5c-8,1.1-15.8-0.8-20-7.8c-29.5-49.1-22.7-33.8-61.9-68.2c-9.7-8.5-13.6-17.1-12.8-21.1
		C558.2,857.5,559.1,871.2,574.3,884.5"/>
	<path fill-rule="evenodd" clip-rule="evenodd" fill="#99302B" d="M486.8,889.8c-27.5,0.9-55.7,4-55.3-28.1
		c0.3-23.2,0.5-34.1-1.3-53.7c-4.2-1.1-7.3-2.3-9.4-3.7c2.7,25.1,2.4,35.6,2.1,61.8c-0.4,32.1,27.8,29,55.3,28.1
		c11.2-0.4,17.9-2.4,21.7-6C496.5,889.1,492.2,889.6,486.8,889.8"/>
	<path fill-rule="evenodd" clip-rule="evenodd" fill="#CCC3AF" d="M448.5,869.5c-5.8-1.3-4.3-33.4-3.6-46.4
		c-2.5-0.4-4.5-0.7-5.8-0.9c-0.6,10.1-2.9,47.9,3.4,49.4c10.9,2.5,47.9,10.1,58.2,3.3C486.3,877.5,457.8,871.6,448.5,869.5"/>
	<path fill-rule="evenodd" clip-rule="evenodd" fill="#CCC3AF" d="M459.7,804c-38.3-2-36.2-9.2-21.2-14.5
		c-19.7,5.4-27.4,14,15.4,16.3c3.7,0.2,34.4-1.4,47.3-6.5C486.5,803,462.9,804.2,459.7,804"/>
	<path fill-rule="evenodd" clip-rule="evenodd" fill="#CCC3AF" d="M831.9,932.2c-53.5,23.3-55.1-8.5-37.7-26.4
		c-21.8,16.4-24.4,55.4,33.3,30.3c2-0.9,3.9-2.4,5.5-4.5C832.6,931.8,832.3,932,831.9,932.2"/>
	<path fill-rule="evenodd" clip-rule="evenodd" fill="#1B7E80" d="M927.5,905c-1.7-13.7-2.5-23.8-3.3-32.9c-2.1-0.9-4.2-2-6.5-3.2
		c0.9,9.9,1.7,20.6,3.6,35.9c1.4,10.8,15.6,15.5,30.1,15.2C939.2,919,928.6,914.2,927.5,905"/>
	<path fill-rule="evenodd" clip-rule="evenodd" fill="#CCC3AF" d="M917,862.7c13.3,7.6,24.9,9.9,34.8,9.7c-8.4-0.7-18-3.4-28.6-9.5
		c-1.3-11.2-3.2-22.4-7.9-39.3c-1-0.2-2-0.4-2.8-0.5l-3.4,0.1C913.8,840.1,915.7,851.4,917,862.7"/>
	<path fill-rule="evenodd" clip-rule="evenodd" fill="#B58169" d="M478.2,899.3c-27,0.8-53.8,2.1-59.4-22.3c0,0-57.3,13.4-39.6,23.8
		c17.7,10.4,66.7,3.4,88.8,5.2c14.5,1.2,26.1-6.5,32.4-12C495.8,897.1,488.7,899,478.2,899.3"/>
	<path fill-rule="evenodd" clip-rule="evenodd" fill="#B58169" d="M589.3,909.7c21.8,13.5,15.1,32.8,22.4,41.7
		c7.3,8.9,29.8,23.9,54.5,11.7c-12.4,5.1-27,4.6-34.4-7.8c-29.1-48.5-22-32.8-60.8-66.9c-7.5-6.6-11.9-12.1-14.1-16.6
		C556.9,871.9,567.6,896.3,589.3,909.7"/>
	<path fill-rule="evenodd" clip-rule="evenodd" fill="#B58169" d="M774.5,945.7c7.1-0.3-16.1,7.3-5.7,12
		c10.4,4.7,57.9,1.5,65.7-20.2c-1.6,1.4-3.3,2.5-5.1,3.3c-31.5,13.6-47.5,9.2-52.7-1.1c-22.8,0.7-31.9-5.5-32.2-13.8
		c0,0-20,5.2-7,12C750.5,944.7,767.4,946,774.5,945.7"/>
	<path fill-rule="evenodd" clip-rule="evenodd" fill="#B58169" d="M915.3,898c-49.8,9.9-66.5,31.1-23.5,37.7
		c10.7,1.6,53.5-2.6,78.5-13.6c-20.6,7.2-51.7,2.5-54.2-16.9C915.8,902.7,915.5,900.3,915.3,898"/>
	<path fill-rule="evenodd" clip-rule="evenodd" fill="#B58169" d="M717.8,877.7c-46.6-1.4-97.7-40.8-118.2-81.1l-0.1-0.3
		c-6.8-9.5-1.6-20.2,8-30.3c-1.6-0.7-3.1-1.7-4.4-3.1c-6.5,40.7-52.8,7.6-30.4-3.8c-3.4-2.6-8.1-3.3-13.4-4.1
		c-0.4,3.5-1.6,6.9-5.8,7.1c-2.8,0.2-5.3-0.3-7.4-1.3c-4.6,0-9.2,0-13.7,0c0.5,10.3,20.7,18.6,28.8,28.4c9.4,11.5,5.2,24,13.5,34.4
		c8.3,10.4,55.2,37.5,86.5,58.3s93.8,4.2,116.7-1c20.1-4.6,49.9-16.4,56.9-19.2c-7.5,2.9-15.5,4.3-23.5,3.4
		C781,868.7,747.1,878.6,717.8,877.7"/>
	<path fill-rule="evenodd" clip-rule="evenodd" fill="#B6BABD" d="M597.4,558.4c-44.3,12.4-90.4,47.1-79.7,98c1.3,6,3.2,10.9,5.5,15
		c22.4,0.8,44.8,1.5,67,2.1c-13-15.6-34.9-45.4-12.2-46c4.4-0.1,12.4,6.9,20.8,15.5c0-10.1,0-21.2,0.2-30.4
		c0.4-19.8,0.5-24.4,1.9-29.2c-0.5-0.5-0.9-1.2-0.9-1.9C599.8,572.2,599,567,597.4,558.4"/>
	<path fill-rule="evenodd" clip-rule="evenodd" fill="#B6BABD" d="M789.4,597.6c2,16.7-1.3,53.2-3.2,75.3
		c28.4-1.2,55.7-3.1,81.7-5.8c2.4-0.2,4.7-0.5,7.1-0.7c-10.2-37.2-41.2-74.7-77.9-81c-0.8,5.4-3.1,7.6-7.1,11.9L789.4,597.6z"/>
	<path fill-rule="evenodd" clip-rule="evenodd" fill="#FFEAE0" d="M565.6,698.5c18.9-1.6,27-8.8,32.8-15.4l-0.2-0.3
		c-0.4-0.5-3.7-4.1-8-9.3c-22.2-0.6-44.6-1.3-67-2.1c8.8,15.6,23.2,18.1,27.1,21.5c4.7-3.5,10-2.7,15.2,5.3L565.6,698.5z"/>
	<path fill-rule="evenodd" clip-rule="evenodd" fill="#FFEAE0" d="M785.1,685.2c37.5-6.9,72.9-4.7,90.8,23.4l1.5,3.2l1.2-18.5
		c0.2-8.7-1-17.9-3.6-27.1l-7.1,0.7c-26,2.7-53.4,4.6-81.7,5.8c-0.4,4.4-0.7,8.3-0.9,11.3C785.3,684.5,785.2,684.9,785.1,685.2"/>
</g>
</svg>
